/* XPM */
static char *result[] = {
/* columns rows colors chars-per-pixel */
"32 32 7 1 ",
"  c #4A3C20",
". c #625029",
"X c #735D31",
"o c #8B7141",
"O c #9C794A",
"+ c #B38C51",
"@ c None",
/* pixels */
"@@@@@@@@@@@@@@@@@@@@@@@@@@@@@@@@",
"@                              @",
"@                              @",
"@..ooOOoooOOOOOOooOOoooOOooOO..@",
"@..ooOOoooOOOOOOooOOoooOOooOO..@",
"@  XX  .....XXOOOO  .....XXoo  @",
"@  XX  .....XXOOOO  .....XXoo  @",
"@..OO..@@@@@++OOoo..@@@@@++oo..@",
"@..oo..@@@@@++OOoo..@@@@@++oo..@",
"@..oo..@@@@@++OOoo..@@@@@++oo..@",
"@..oo..@@@@@++OOoo..@@@@@++OO..@",
"@..oo..@@@@@++OOoo..@@@@@++OO..@",
"@  ..XX+OO++OOOOooXX+++++oo..  @",
"@  ..XX+OO++OOOOooXX+++++oo..  @",
"@..OOooOOOOOooOOooOOOOOOOOOOO..@",
"@..OOooOOOOOooOOooOOOOOOOOOOO..@",
"@..OOOOOooooooOOOOooOOoOOoooo..@",
"@..OOOOOooooooOOOOooOOoOOoooo..@",
"@..oo  .....XXOOoo  .....XXOO..@",
"@..oo  .....XXOOoo  .....XXOO..@",
"@..OO..@@@@@++OOOO..@@@@@++OO..@",
"@..OO..@@@@@++OOOO..@@@@@++OO..@",
"@  oo  @@@@@OOOOoo..@@@@@OOoo  @",
"@..oo..@@@@@++OOoo..@@@@@++OO..@",
"@..oo..@@@@@++OOoo..@@@@@++OO..@",
"@..OOXXO++++OOOOooXXOO+++++oo..@",
"@..OOXXO++++OOOOooXXOO+++++oo..@",
"@..ooOOOOOOOooOOooOOOOOOOOOoo..@",
"@..ooOOOOOOOooOOooOOOOOOOOOoo..@",
"@                              @",
"@                              @",
"@@@@@@@@@@@@@@@@@@@@@@@@@@@@@@@@"
};
