/* XPM */
static char *result[] = {
/* columns rows colors chars-per-pixel */
"32 32 9 1 ",
"  c #733F31",
". c #7C4536",
"X c #8F503F",
"o c #9B5643",
"O c #B1624D",
"+ c #8B6E67",
"@ c #C66851",
"# c #A2867D",
"$ c #A9948D",
/* pixels */
"OOOOoo++@@@@@@OOOOOOoo##@@OOOOOO",
"OOOOoo++@@@@@@OOOOOOoo##@@OOOOOO",
"ooooXX##..XXooooooooXX##..oooooo",
"ooooXX##..XXooooooooXX##..oooooo",
"..    $$    XXXX..    ##  XX....",
"..    $$    XXXX..    ##  XX....",
"++++##$$##++++++++####$$##++++++",
"++++##$$##++++++++####$$##++++++",
"@@@@OOOOooOOoo##@@OOOOOOooOOoo++",
"@@@@OOOOooOOoo##@@OOOOOOooOOoo++",
"..ooooooooXX..##..XXXXXXXXXX..##",
"..ooooooooXX..##..XXXXXXXXXX..##",
"..XXoo......  $$    ..XXXX..  ##",
"..XXoo......  $$    ..XXXX..  ##",
"##++++++++####$$####++++++++##$$",
"##++++++++####$$####++++++++##$$",
"OOOOoo##@@@@@@OOooOOoo##@@@@OOOO",
"OOOOoo##@@@@@@OOooOOoo##@@@@OOOO",
"ooooXX##XXoooooooooo..##XXoooooo",
"ooooXX##XXoooooooooo..##XXoooooo",
"....  ##....XXXX....  $$..XXXXXX",
"....  ##....XXXX....  $$..XXXXXX",
"++####$$##++++++++++##$$##++++++",
"++####$$##++++++++++##$$##++++++",
"ooOOOOOOooOOoo++@@OOOOOOooOOoo##",
"ooOOOOOOooOOoo++@@OOOOOOooOOoo##",
"..ooooooooooXX##XXoooooooooo..##",
"..ooooooooooXX##XXoooooooooo..##",
"  ..........  $$  ..........  $$",
"  ..........  $$  ..........  $$",
"##++++++++++##$$####++++++##$$$$",
"##++++++++++##$$####++++++##$$$$"
};
