/* XPM */
static char *result[] = {
/* columns rows colors chars-per-pixel */
"32 32 11 1 ",
"  c #54090E",
". c #542409",
"X c #752802",
"o c #7E370E",
"O c #9C1017",
"+ c #B4131E",
"@ c #DD1725",
"# c #FF1C2B",
"$ c #FF5E69",
"% c #FF969D",
"& c None",
/* pixels */
"&&&&&&&&&&&&&&&&&&&&&&&&&&&&&&&&",
"&&&&&&&&&&&&&&&&&&XX&&&&&&&&&&&&",
"&&&&&&&&&&&&&&&&&&XX&&&&&&&&&&&&",
"&&&&&&&&&&&&&&&&oo..&&&&&&&&&&&&",
"&&&&&&&&&&&&&&&&oo..&&&&&&&&&&&&",
"&&&&&&&&&&&&&&&&XX&&&&&&&&&&&&&&",
"&&&&&&&&&&&&&&&&XX&&&&&&&&&&&&&&",
"&&&&&&&&&OOOOOXX..XXXX&&&&&&&&&&",
"&&&&&&&&&OOOOOXX..XXXX&&&&&&&&&&",
"&&&&&&&&&OOOOOXX..XXXX&&&&&&&&&&",
"&&&&&OO++%%%++..OO@@++XXXXX&&&&&",
"&&&&&OO++%%%++..OO@@++XXXXX&&&&&",
"&&&OO++##$$$%%%%%%$$##+++XXXX&&&",
"&&&OO++##$$$%%%%%%$$##+++XXXX&&&",
"&&&OO++#############@@###++XX&&&",
"&&&OO++#############@@###++XX&&&",
"&&&OO++@@###@@##@@@@@@###@@  &&&",
"&&&OO++@@###@@##@@@@@@###@@  &&&",
"&&&XX++++@@@@@++++@@++###@@  &&&",
"&&&XX++++@@@@@++++@@++###@@  &&&",
"&&&XX+++++++++++@@++++###++  &&&",
"&&&XX+++++++++++@@++++###++  &&&",
"&&&&&XX+++++@@++++++@@+++  &&&&&",
"&&&&&XX+++++@@++++++@@+++  &&&&&",
"&&&&&XX+++++@@++++++@@+++  &&&&&",
"&&&&&XXOO+++++++@@@@++OOO  &&&&&",
"&&&&&XXOO+++++++@@@@++OOO  &&&&&",
"&&&&&&&  OOO++OOOO++OO   &&&&&&&",
"&&&&&&&  OOO++OOOO++OO   &&&&&&&",
"&&&&&&&&&   XXXXXX    &&&&&&&&&&",
"&&&&&&&&&   XXXXXX    &&&&&&&&&&",
"&&&&&&&&&&&&&&&&&&&&&&&&&&&&&&&&"
};
