/* XPM */
static char *result[] = {
/* columns rows colors chars-per-pixel */
"32 32 51 1 ",
"  c black",
". c #173A14",
"X c #1C4F14",
"o c #1D4C16",
"O c #1E4E18",
"+ c #1F5417",
"@ c #1F5518",
"# c #385831",
"$ c #13A90F",
"% c #299326",
"& c #3B8E37",
"* c #41B736",
"= c #47B239",
"- c #47C536",
"; c #4CCB3D",
": c #488C45",
"> c #4C9148",
", c #4D904A",
"< c #51974E",
"1 c #51984D",
"2 c #579856",
"3 c #4CB341",
"4 c #5FBC50",
"5 c #65B757",
"6 c #65BC55",
"7 c #67A166",
"8 c #5ED04C",
"9 c #5FC559",
"0 c #67CF55",
"q c #68CF57",
"w c #67D755",
"e c #70DC5D",
"r c #6EC965",
"t c #78CE67",
"y c #7DCC6E",
"u c #82DE70",
"i c #85DC74",
"p c #89D282",
"a c #93D284",
"s c #93D78C",
"d c #94D78E",
"f c #9DC79D",
"g c #A5CD9F",
"h c #A4D29A",
"j c #AED0A8",
"k c #BFD2BB",
"l c #C2E2BB",
"z c #C3D2C0",
"x c #D2D2D2",
"c c gainsboro",
"v c None",
/* pixels */
"vvvvvvvvvvvvvvvvvvvvvvvvvvvvvvvv",
"vvvvvvvvvvvvvvvvvvvvvvvvvvvvvvvv",
"vvggg$$$$333ffffxxxiiiiyyy,,,,vv",
"vvggg$$$$333ffffxxxiiiiyyy,,,,vv",
"vvggg$$$$333ffffxxxiiiiyyy,,,,vv",
"vv%%%9999***rrrr>>>eeee666xxxxvv",
"vv%%%9999***rrrr>>>eeee666xxxxvv",
"vv%%%9999***rrrr>>>eeee666xxxxvv",
"vv%%%9999***rrrr>>>eeee666xxxxvv",
"vv---++++###ssss222OOOO###ccccvv",
"vv---++++###ssss222OOOO###ccccvv",
"vv---++++###ssss222OOOO###ccccvv",
"vv;;;OOOO   0000===    ...ttttvv",
"vv;;;OOOO   0000===    ...ttttvv",
"vv;;;OOOO   0000===    ...ttttvv",
"vv;;;OOOO   0000===    ...ttttvv",
"vvppp5555dddXXXXooozzzz:::8888vv",
"vvppp5555dddXXXXooozzzz:::8888vv",
"vvppp5555dddXXXXooozzzz:::8888vv",
"vvhhh<<<<###       @@@@wwwkkkkvv",
"vvhhh<<<<###       @@@@wwwkkkkvv",
"vvhhh<<<<###       @@@@wwwkkkkvv",
"vvhhh<<<<###       @@@@wwwkkkkvv",
"vvlll7777              4441111vv",
"vvlll7777              4441111vv",
"vvlll7777              4441111vv",
"vvwwwuuuu...aaaajjjoooo&&&qqqqvv",
"vvwwwuuuu...aaaajjjoooo&&&qqqqvv",
"vvwwwuuuu...aaaajjjoooo&&&qqqqvv",
"vvwwwuuuu...aaaajjjoooo&&&qqqqvv",
"vvvvvvvvvvvvvvvvvvvvvvvvvvvvvvvv",
"vvvvvvvvvvvvvvvvvvvvvvvvvvvvvvvv"
};
