/* XPM */
static char *result[] = {
/* columns rows colors chars-per-pixel */
"32 32 39 1 ",
"  c #4F641F",
". c #4F651F",
"X c #50661E",
"o c #50671E",
"O c #536B1B",
"+ c #566F19",
"@ c #556D1A",
"# c #546C1B",
"$ c #556E1A",
"% c #51681D",
"& c #52691C",
"* c #526A1C",
"= c #597417",
"- c #597517",
"; c #5A7617",
": c #5B7717",
"> c #5B7816",
", c #5C7816",
"< c #5C7916",
"1 c #5D7A16",
"2 c #5D7B16",
"3 c #5E7C16",
"4 c #567019",
"5 c #577119",
"6 c #587218",
"7 c #587318",
"8 c #4A5C23",
"9 c #4A5D23",
"0 c #4B5E22",
"q c #4B5F22",
"w c #4B5E23",
"e c #4C5F22",
"r c #495B24",
"t c #4A5C24",
"y c #4C6021",
"u c #4D6121",
"i c #4D6220",
"p c #4E6320",
"a c #658619",
/* pixels */
"iiXXyyuuOO--pp  557799uu@@@@uu00",
"iiXXyyuuOO--pp  557799uu@@@@uu00",
"##44aaaa::77%%%%uu00  %%rrqqXX&&",
"##44aaaa::77%%%%uu00  %%rrqqXX&&",
"::,,%%**22,,$$%%77,,666633aa7744",
"::,,%%**22,,$$%%77,,666633aa7744",
"##XX==,,%%XXOO,,pp%%,,,,##XXaa>>",
"##XX==,,%%XXOO,,pp%%,,,,##XXaa>>",
"44&&pp##--==99tt..@@  ee----uu99",
"44&&pp##--==99tt..@@  ee----uu99",
"qq99pp,,ppttiiXXppttXX%%ww  uuoo",
"qq99pp,,ppttiiXXppttXX%%ww  uuoo",
"aaaa;;==OOOO&&@@::aa55%%aaaa77$$",
"aaaa;;==OOOO&&@@::aa55%%aaaa77$$",
"XXXXaaaa7755,,>>uu  ==,,5544<<>>",
"XXXXaaaa7755,,>>uu  ==,,5544<<>>",
"7766qq..>>55ppXX..%%  wwOO%%yyee",
"7766qq..>>55ppXX..%%  wwOO%%yyee",
"..%%oo::tt99%%++pp44aaaa**66aaaa",
"..%%oo::tt99%%++pp44aaaa**66aaaa",
">><<7777aa,,7755<<::%%@@44OOuu##",
">><<7777aa,,7755<<::%%@@44OOuu##",
"uupp++++XXXX--66uupp..449988oo44",
"uupp++++XXXX--66uupp..449988oo44",
"XXXXtt99>>22eettOO--@@66aaaa44ww",
"XXXXtt99>>22eettOO--@@66aaaa44ww",
"665533aa>>77@@%%tt**66,,&&**,,aa",
"665533aa>>77@@%%tt**66,,&&**,,aa",
"2211##%%,,@@44==aa::  ..$$66XXuu",
"2211##%%,,@@44==aa::  ..$$66XXuu",
"00pp>>$$uuXX,,33&&XX55>>uupp::,,",
"00pp>>$$uuXX,,33&&XX55>>uupp::,,"
};
