/* XPM */
static char *result[] = {
/* columns rows colors chars-per-pixel */
"32 32 44 1 ",
"  c #241808",
". c #261A0A",
"X c #281C0B",
"o c #2A1D0D",
"O c #2B1E0D",
"+ c #2C1E0E",
"@ c #2F1F0F",
"# c #2F200D",
"$ c #332411",
"% c #342512",
"& c #3F2A15",
"* c #422A12",
"= c #6D432A",
"- c #6F452C",
"; c #6A4030",
": c #774235",
"> c #7A4E33",
", c #805334",
"< c #815339",
"1 c #83553B",
"2 c #8F5E3E",
"3 c #905E43",
"4 c #965F40",
"5 c #9C6346",
"6 c #9C694C",
"7 c #9C725C",
"8 c #A26A47",
"9 c #AC765A",
"0 c #AA7D66",
"q c #B37B62",
"w c #B57B67",
"e c #AD806D",
"r c #B4846D",
"t c #B6896C",
"y c #BE886C",
"u c #B78272",
"i c #BB8972",
"p c #BD8B72",
"a c #BD8E72",
"s c #BD8E74",
"d c #523D89",
"f c #C69680",
"g c white",
"h c None",
/* pixels */
"hhhhhhhhhhhhhhhhhhhhhhhhhhhhhhhh",
"hhhhhhhhhhhhhhhhhhhhhhhhhhhhhhhh",
"hh###OOOO@@@XXXX   ....OOOoooohh",
"hh###OOOO@@@XXXX   ....OOOoooohh",
"hh###OOOO@@@XXXX   ....OOOoooohh",
"hhOOOOOOOOOO$$$$***&&&&+++XXXXhh",
"hhOOOOOOOOOO$$$$***&&&&+++XXXXhh",
"hhOOOOOOOOOO$$$$***&&&&+++XXXXhh",
"hhOOOOOOOOOO$$$$***&&&&+++XXXXhh",
"hhOOOttttaaaffffpppssss999%%%%hh",
"hhOOOttttaaaffffpppssss999%%%%hh",
"hhOOOttttaaaffffpppssss999%%%%hh",
"hh000rrrr000eeee777iiii6666666hh",
"hh000rrrr000eeee777iiii6666666hh",
"hh000rrrr000eeee777iiii6666666hh",
"hh000rrrr000eeee777iiii6666666hh",
"hhrrrggggdddwwwwiiiddddggg0000hh",
"hhrrrggggdddwwwwiiiddddggg0000hh",
"hhrrrggggdddwwwwiiiddddggg0000hh",
"hh555qqqquuu;;;;;;;yyyy888,,,,hh",
"hh555qqqquuu;;;;;;;yyyy888,,,,hh",
"hh555qqqquuu;;;;;;;yyyy888,,,,hh",
"hh555qqqquuu;;;;;;;yyyy888,,,,hh",
"hh3334444::::::::::::::222<<<<hh",
"hh3334444::::::::::::::222<<<<hh",
"hh3334444::::::::::::::222<<<<hh",
"hh---====<<<<<<<>>>1111111>>>>hh",
"hh---====<<<<<<<>>>1111111>>>>hh",
"hh---====<<<<<<<>>>1111111>>>>hh",
"hh---====<<<<<<<>>>1111111>>>>hh",
"hhhhhhhhhhhhhhhhhhhhhhhhhhhhhhhh",
"hhhhhhhhhhhhhhhhhhhhhhhhhhhhhhhh"
};
